<?xml version="1.0" encoding="UTF-8" standalone="no"?>
<!DOCTYPE svg PUBLIC "-//W3C//DTD SVG 20010904//EN"
"http://www.w3.org/TR/2001/REC-SVG-20010904/DTD/svg10.dtd">
<!-- Created with Inkscape (http://www.inkscape.org/) -->
<svg
   id="svg579"
   sodipodi:version="0.32"
   inkscape:version="0.38.1"
   width="400pt"
   height="70pt"
   sodipodi:docbase="/home/astryad"
   sodipodi:docname="freckle.svg"
   xmlns="http://www.w3.org/2000/svg"
   xmlns:inkscape="http://www.inkscape.org/namespaces/inkscape"
   xmlns:sodipodi="http://sodipodi.sourceforge.net/DTD/sodipodi-0.dtd"
   xmlns:xlink="http://www.w3.org/1999/xlink">
  <defs
     id="defs581">
    <linearGradient
       id="linearGradient843">
      <stop
         style="stop-color:#7733aa;stop-opacity:1.0000000;"
         offset="0.0000000"
         id="stop844" />
      <stop
         style="stop-color:#ffffff;stop-opacity:1;"
         offset="1.00000000"
         id="stop845" />
    </linearGradient>
    <linearGradient
       id="linearGradient669">
      <stop
         style="stop-color:#71adea;stop-opacity:1.0000000;"
         offset="0.0000000"
         id="stop670" />
      <stop
         style="stop-color:#ffffff;stop-opacity:1;"
         offset="1.00000000"
         id="stop671" />
    </linearGradient>
    <linearGradient
       id="linearGradient583">
      <stop
         style="stop-color:#000;stop-opacity:1;"
         offset="0"
         id="stop584" />
      <stop
         style="stop-color:#fff;stop-opacity:1;"
         offset="1"
         id="stop585" />
    </linearGradient>
    <linearGradient
       xlink:href="#linearGradient669"
       id="linearGradient586"
       x1="2.1684043e-17"
       y1="2.1293731e-15"
       x2="1.0000000"
       y2="2.1293731e-15" />
    <linearGradient
       xlink:href="#linearGradient843"
       id="linearGradient672"
       x1="-6.0108168e-16"
       y1="2.8446212e-15"
       x2="1.0000000"
       y2="2.8446212e-15" />
    <linearGradient
       xlink:href="#linearGradient669"
       id="linearGradient866"
       x1="0.22727537"
       y1="0.0078043570"
       x2="1.0000000"
       y2="-4.5757668e-15" />
    <linearGradient
       xlink:href="#linearGradient843"
       id="linearGradient867"
       x1="4.0115480e-18"
       y1="1.3726000e-15"
       x2="1.0000000"
       y2="1.3726000e-15" />
    <linearGradient
       xlink:href="#linearGradient669"
       id="linearGradient868"
       x1="5.1174343e-16"
       y1="2.1545266e-15"
       x2="1.0000000"
       y2="2.1545266e-15" />
    <linearGradient
       xlink:href="#linearGradient669"
       id="linearGradient869"
       x1="-5.6551985e-16"
       y1="2.2733551e-15"
       x2="1.0000000"
       y2="2.2733551e-15" />
    <linearGradient
       xlink:href="#linearGradient843"
       id="linearGradient870"
       x1="2.6194324e-16"
       y1="2.1419498e-15"
       x2="1.0000000"
       y2="2.1419498e-15" />
    <linearGradient
       xlink:href="#linearGradient843"
       id="linearGradient871" />
  </defs>
  <sodipodi:namedview
     id="base"
     pagecolor="#ffffff"
     bordercolor="#666666"
     borderopacity="1.0"
     inkscape:pageopacity="0.0"
     inkscape:pageshadow="2"
     inkscape:zoom="0.86831672"
     inkscape:cx="335.154228"
     inkscape:cy="53.0870868"
     inkscape:window-width="1016"
     inkscape:window-height="696"
     showgrid="true"
     vertgrid="true"
     horizgrid="true"
     gridspacingx="2mm"
     gridspacingy="2mm"
     gridtolerance="2px"
     guidecolor="#000000"
     guideopacity="1"
     gridcolor="#000000"
     gridhicolor="1"
     inkscape:window-x="0"
     inkscape:window-y="23" />
  <rect
     style="fill:#ffffff;fill-opacity:1.0000000;fill-rule:evenodd;stroke:#000000;stroke-width:1.0000000pt;"
     id="rect886"
     width="1161.7305"
     height="322.46298"
     x="-244.72637"
     y="-371.72184" />
  <g
     id="g872">
    <path
       style="font-size:12.000000;fill:url(#linearGradient866);fill-opacity:0.95275599;fill-rule:evenodd;stroke:#000000;stroke-width:1.3990307pt;"
       d="M 11.557430,-224.06598 L -18.093298,-224.15602 L -37.998526,-244.02089 L -18.097033,-263.75963 L 11.546769,-263.81300 L 31.378575,-243.98556 L 11.557430,-224.06598 z "
       id="path668"
       sodipodi:nodetypes="ccccccc"
       transform="matrix(1.118314,0.000000,0.000000,1.117442,4.599221,31.08548)" />
    <path
       style="font-size:12.000000;fill:url(#linearGradient586);fill-opacity:0.95275599;fill-rule:evenodd;stroke:#000000;stroke-width:1.3990307pt;"
       d="M 65.935570,-201.91208 L 36.284847,-202.00212 L 16.379620,-221.86698 L 36.281112,-241.60573 L 65.924910,-241.65910 L 85.756720,-221.83166 L 65.935570,-201.91208 z "
       id="path846"
       sodipodi:nodetypes="ccccccc"
       transform="matrix(1.118314,0.000000,0.000000,1.117442,4.599221,31.08548)" />
    <path
       style="font-size:12.000000;fill:url(#linearGradient586);fill-opacity:0.95275599;fill-rule:evenodd;stroke:#000000;stroke-width:1.3990307pt;"
       d="M 11.557430,-179.75818 L -18.093298,-179.84822 L -37.998525,-199.71308 L -18.097033,-219.45182 L 11.546769,-219.50520 L 31.378575,-199.67776 L 11.557430,-179.75818 z "
       id="path847"
       sodipodi:nodetypes="ccccccc"
       transform="matrix(1.118314,0.000000,0.000000,1.117442,4.599221,31.08548)" />
    <path
       style="font-size:12.000000;fill:url(#linearGradient867);fill-opacity:0.95275599;fill-rule:evenodd;stroke:#000000;stroke-width:1.3990307pt;"
       d="M 120.31372,-224.06598 L 90.662990,-224.15602 L 70.757770,-244.02089 L 90.659260,-263.75963 L 120.30306,-263.81300 L 140.13487,-243.98556 L 120.31372,-224.06598 z "
       id="path848"
       sodipodi:nodetypes="ccccccc"
       transform="matrix(1.118314,0.000000,0.000000,1.117442,4.599221,31.08548)" />
    <path
       style="font-size:12.000000;fill:url(#linearGradient868);fill-opacity:0.95275599;fill-rule:evenodd;stroke:#000000;stroke-width:1.3990307pt;"
       d="M 345.88232,-179.75818 L 316.23159,-179.84822 L 296.32636,-199.71308 L 316.22786,-219.45182 L 345.87166,-219.50520 L 365.70346,-199.67776 L 345.88232,-179.75818 z "
       id="path849"
       sodipodi:nodetypes="ccccccc"
       transform="matrix(1.118314,0.000000,0.000000,1.117442,4.599221,31.08548)" />
    <path
       style="font-size:12.000000;fill:url(#linearGradient586);fill-opacity:0.95275599;fill-rule:evenodd;stroke:#000000;stroke-width:1.3990307pt;"
       d="M 291.50418,-201.91208 L 261.85346,-202.00212 L 241.94823,-221.86698 L 261.84972,-241.60573 L 291.49352,-241.65910 L 311.32533,-221.83166 L 291.50418,-201.91208 z "
       id="path850"
       sodipodi:nodetypes="ccccccc"
       transform="matrix(1.118314,0.000000,0.000000,1.117442,4.599221,31.08548)" />
    <path
       style="font-size:12.000000;fill:url(#linearGradient586);fill-opacity:0.95275599;fill-rule:evenodd;stroke:#000000;stroke-width:1.3990307pt;"
       d="M 345.88233,-224.06598 L 316.23161,-224.15602 L 296.32638,-244.02089 L 316.22787,-263.75963 L 345.87167,-263.81300 L 365.70348,-243.98556 L 345.88233,-224.06598 z "
       id="path851"
       sodipodi:nodetypes="ccccccc"
       transform="matrix(1.118314,0.000000,0.000000,1.117442,4.599221,31.08548)" />
    <path
       style="font-size:12.000000;fill:url(#linearGradient870);fill-opacity:0.95275599;fill-rule:evenodd;stroke:#000000;stroke-width:1.3990307pt;"
       d="M 237.12603,-179.75818 L 207.47530,-179.84822 L 187.57008,-199.71308 L 207.47157,-219.45182 L 237.11537,-219.50520 L 256.94718,-199.67776 L 237.12603,-179.75818 z "
       id="path852"
       sodipodi:nodetypes="ccccccc"
       transform="matrix(1.118314,0.000000,0.000000,1.117442,4.599221,31.08548)" />
    <path
       style="font-size:12.000000;fill:url(#linearGradient869);fill-opacity:0.95275599;fill-rule:evenodd;stroke:#000000;stroke-width:1.3990307pt;"
       d="M 400.26048,-201.91208 L 370.60976,-202.00212 L 350.70453,-221.86698 L 370.60602,-241.60573 L 400.24982,-241.65910 L 420.08163,-221.83166 L 400.26048,-201.91208 z "
       id="path853"
       sodipodi:nodetypes="ccccccc"
       transform="matrix(1.118314,0.000000,0.000000,1.117442,4.599221,31.08548)" />
    <path
       style="font-size:12.000000;fill:url(#linearGradient586);fill-opacity:0.95275599;fill-rule:evenodd;stroke:#000000;stroke-width:1.3990307pt;"
       d="M 567.42293,-201.91208 L 537.77220,-202.00212 L 517.86697,-221.86698 L 537.76846,-241.60573 L 567.41227,-241.65910 L 587.24407,-221.83166 L 567.42293,-201.91208 z "
       id="path854"
       sodipodi:nodetypes="ccccccc"
       transform="matrix(1.118314,0.000000,0.000000,1.117442,4.599221,31.08548)" />
    <path
       style="font-size:12.000000;fill:url(#linearGradient586);fill-opacity:0.95275599;fill-rule:evenodd;stroke:#000000;stroke-width:1.3990307pt;"
       d="M 621.80106,-224.06598 L 592.15034,-224.15602 L 572.24511,-244.02089 L 592.14660,-263.75963 L 621.79040,-263.81300 L 641.62221,-243.98556 L 621.80106,-224.06598 z "
       id="path855"
       sodipodi:nodetypes="ccccccc"
       transform="matrix(1.118314,0.000000,0.000000,1.117442,4.599221,31.08548)" />
    <path
       style="font-size:12.000000;fill:url(#linearGradient672);fill-opacity:0.95275599;fill-rule:evenodd;stroke:#000000;stroke-width:1.3990307pt;"
       d="M 621.80108,-179.75818 L 592.15035,-179.84822 L 572.24512,-199.71308 L 592.14662,-219.45182 L 621.79042,-219.50520 L 641.62222,-199.67776 L 621.80108,-179.75818 z "
       id="path856"
       sodipodi:nodetypes="ccccccc"
       transform="matrix(1.118314,0.000000,0.000000,1.117442,4.599221,31.08548)" />
    <path
       style="font-size:12.000000;stroke-width:4.4727603;font-family:Aetherfox;fill:#ffffff;fill-opacity:0.73333335;stroke:#000000;stroke-opacity:1.0000000;stroke-dasharray:none;"
       d="M 445.86187,-186.62519 L 444.61580,-186.62519 C 443.27744,-186.62519 441.26990,-186.62519 438.59316,-186.62519 C 435.96260,-186.62519 432.43208,-188.05382 428.00163,-190.91107 C 423.57117,-193.82327 420.08681,-197.69704 417.54854,-202.53239 C 415.74866,-205.93912 414.57182,-209.62058 414.01801,-213.57677 L 414.01801,-221.90127 C 414.57182,-225.85746 415.74866,-229.53892 417.54854,-232.94566 C 420.08681,-237.78100 423.57117,-241.62731 428.00163,-244.48456 C 432.43208,-247.39676 437.25481,-248.85285 442.46981,-248.85285 C 442.56210,-248.85285 442.90824,-248.85285 443.50819,-248.85285 L 448.35398,-248.85285 C 448.95396,-248.85285 449.30008,-248.85285 449.39238,-248.85285 C 454.60738,-248.85285 459.43011,-247.39676 463.86056,-244.48456 C 468.29101,-241.62731 471.77538,-237.78100 474.31365,-232.94566 C 476.11352,-229.53892 477.29036,-225.85746 477.84416,-221.90127 L 477.70570,-211.02173 L 461.23000,-211.02173 L 461.16076,-210.93930 L 443.64664,-211.02173 L 436.17027,-211.02173 L 426.47866,-211.02173 L 427.03246,-210.36236 C 428.04778,-208.27437 429.43229,-206.43364 431.18601,-204.84017 C 432.93973,-203.24670 434.92419,-201.95545 437.13941,-200.96640 L 454.72277,-200.96640 L 477.70570,-201.13124 L 477.70570,-186.62519 L 447.24640,-186.62519 L 445.86187,-186.62519 z M 465.52198,-222.23095 C 465.38352,-223.16506 465.15277,-223.98927 464.82973,-224.70358 C 463.81442,-227.06630 462.42989,-229.04440 460.67617,-230.63787 C 458.92245,-232.23133 456.93798,-233.52260 454.72277,-234.51164 L 437.13941,-234.51164 C 434.92419,-233.52260 432.93973,-232.23133 431.18601,-230.63787 C 429.43229,-229.04440 428.04778,-227.06630 427.03246,-224.70358 C 426.70941,-223.98927 426.43251,-223.16506 426.20175,-222.23095 L 443.64664,-222.23095 L 452.36909,-222.23095 L 465.52198,-222.23095 z M 376.15155,-186.62519 L 377.39761,-186.62519 C 378.73597,-186.62519 380.72045,-186.62519 383.35103,-186.62519 C 386.02776,-186.62519 389.58134,-188.05382 394.01178,-190.91107 C 398.44223,-193.82327 401.92660,-197.69704 404.46487,-202.53239 C 406.26474,-205.93912 407.44158,-209.62058 407.99537,-213.57677 L 395.88089,-213.57677 C 395.60399,-212.42289 395.30399,-211.48878 394.98094,-210.77446 C 393.96564,-208.41174 392.58112,-206.43364 390.82740,-204.84017 C 389.07368,-203.24670 387.08921,-201.95545 384.87399,-200.96640 L 367.29066,-200.96640 C 365.07542,-201.95545 363.09095,-203.24670 361.33723,-204.84017 C 359.58352,-206.43364 358.19901,-208.41174 357.18370,-210.77446 C 356.86062,-211.48878 356.56065,-212.42289 356.28376,-213.57677 L 356.28376,-221.90127 L 356.35298,-248.93528 L 344.16924,-248.93528 L 344.16924,-213.57677 C 344.72306,-209.62058 345.89991,-205.93912 347.69976,-202.53239 C 350.23805,-197.69704 353.72240,-193.82327 358.15286,-190.91107 C 362.58329,-188.05382 366.11382,-186.62519 368.74439,-186.62519 C 371.42111,-186.62519 373.42866,-186.62519 374.76703,-186.62519 L 376.15155,-186.62519 z M 307.41038,-222.23095 L 309.62561,-222.23095 C 314.88675,-222.01117 319.73257,-223.32990 324.16300,-226.18715 C 328.59346,-229.09935 332.07781,-232.97313 334.61611,-237.80848 C 336.41597,-241.21519 337.59280,-244.89666 338.14662,-248.85285 L 326.03210,-248.85285 C 325.75521,-247.69897 325.45522,-246.76486 325.13217,-246.05056 C 324.11686,-243.68782 322.73234,-241.70972 320.97863,-240.11626 C 319.22490,-238.52279 317.24042,-237.23154 315.02520,-236.24248 L 284.28898,-236.24248 L 284.28898,-248.93528 L 274.32047,-248.93528 L 274.32047,-197.91684 L 274.32047,-186.62519 L 284.49667,-186.62519 L 284.28898,-199.48282 L 314.88675,-199.48282 C 317.19428,-198.32893 319.22490,-196.95526 320.97863,-195.36180 C 322.73234,-193.76832 324.11686,-191.79022 325.13217,-189.42749 C 325.45522,-188.71318 325.75521,-187.77908 326.03210,-186.62519 L 338.14662,-186.62519 C 337.59280,-190.58138 336.41597,-194.26285 334.61611,-197.66956 C 332.07781,-202.50493 328.59346,-206.35121 324.16300,-209.20848 C 319.73257,-212.12068 316.17897,-213.57677 313.50224,-213.57677 C 310.87168,-213.57677 308.88719,-213.57677 307.54884,-213.57677 L 284.28898,-213.65919 L 284.28898,-222.23095 L 307.41038,-222.23095 z M 236.31554,-186.62519 L 235.06948,-186.62519 C 233.73110,-186.62519 231.72356,-186.62519 229.04684,-186.62519 C 226.41626,-186.62519 222.88574,-188.05382 218.45530,-190.91107 C 214.02485,-193.82327 210.54049,-197.69704 208.00221,-202.53239 C 206.20235,-205.93912 205.02551,-209.62058 204.47172,-213.57677 L 204.47172,-221.90127 C 205.02551,-225.85746 206.20235,-229.53892 208.00221,-232.94566 C 210.54049,-237.78100 214.02485,-241.62731 218.45530,-244.48456 C 222.88574,-247.39676 227.70847,-248.85285 232.92348,-248.85285 C 233.01578,-248.85285 233.36191,-248.85285 233.96186,-248.85285 L 238.80769,-248.85285 C 239.40762,-248.85285 239.75376,-248.85285 239.84607,-248.85285 C 245.06105,-248.85285 249.88380,-247.39676 254.31423,-244.48456 C 258.74469,-241.62731 262.22904,-237.78100 264.76732,-232.94566 C 266.56718,-229.53892 267.74402,-225.85746 268.29783,-221.90127 L 256.18333,-221.90127 C 255.90643,-223.05516 255.60645,-223.98927 255.28339,-224.70358 C 254.26808,-227.06630 252.88357,-229.04440 251.12986,-230.63787 C 249.37614,-232.23133 247.39167,-233.52260 245.17643,-234.51164 L 227.59310,-234.51164 C 225.37788,-233.52260 223.39339,-232.23133 221.63969,-230.63787 C 219.88597,-229.04440 218.50145,-227.06630 217.48615,-224.70358 C 217.16308,-223.98927 216.86310,-223.05516 216.58620,-221.90127 L 216.58620,-213.57677 C 216.86310,-212.42289 217.16308,-211.48878 217.48615,-210.77446 C 218.50145,-208.41174 219.88597,-206.43364 221.63969,-204.84017 C 223.39339,-203.24670 225.37788,-201.95545 227.59310,-200.96640 L 245.17643,-200.96640 L 268.15940,-201.13124 L 268.15940,-186.62519 L 237.70006,-186.62519 L 236.31554,-186.62519 z M 166.46676,-186.62519 L 165.22071,-186.62519 C 163.88235,-186.62519 161.87479,-186.62519 159.19807,-186.62519 C 156.56749,-186.62519 153.03697,-188.05382 148.60653,-190.91107 C 144.17608,-193.82327 140.69171,-197.69704 138.15342,-202.53239 C 136.35357,-205.93912 135.17672,-209.62058 134.62293,-213.57677 L 134.62293,-221.90127 C 135.17672,-225.85746 136.35357,-229.53892 138.15342,-232.94566 C 140.69171,-237.78100 144.17608,-241.62731 148.60653,-244.48456 C 153.03697,-247.39676 157.85971,-248.85285 163.07471,-248.85285 C 163.16702,-248.85285 163.51313,-248.85285 164.11310,-248.85285 L 168.95890,-248.85285 C 169.55884,-248.85285 169.90499,-248.85285 169.99728,-248.85285 C 175.21230,-248.85285 180.03501,-247.39676 184.46546,-244.48456 C 188.89590,-241.62731 192.38026,-237.78100 194.91855,-232.94566 C 196.71841,-229.53892 197.89524,-225.85746 198.44906,-221.90127 L 198.31061,-211.02173 L 181.83487,-211.02173 L 181.76566,-210.93930 L 164.25154,-211.02173 L 156.77516,-211.02173 L 147.08357,-211.02173 L 147.63736,-210.36236 C 148.65267,-208.27437 150.03720,-206.43364 151.79092,-204.84017 C 153.54464,-203.24670 155.52910,-201.95545 157.74432,-200.96640 L 175.32765,-200.96640 L 198.31061,-201.13124 L 198.31061,-186.62519 L 167.85129,-186.62519 L 166.46676,-186.62519 z M 186.12687,-222.23095 C 185.98844,-223.16506 185.75768,-223.98927 185.43462,-224.70358 C 184.41931,-227.06630 183.03480,-229.04440 181.28108,-230.63787 C 179.52736,-232.23133 177.54288,-233.52260 175.32765,-234.51164 L 157.74432,-234.51164 C 155.52910,-233.52260 153.54464,-232.23133 151.79092,-230.63787 C 150.03720,-229.04440 148.65267,-227.06630 147.63736,-224.70358 C 147.31432,-223.98927 147.03741,-223.16506 146.80666,-222.23095 L 164.25154,-222.23095 L 172.97398,-222.23095 L 186.12687,-222.23095 z M 96.756450,-248.93528 L 98.002500,-248.93528 C 99.340870,-248.93528 101.32534,-248.93528 103.95593,-248.93528 C 106.63265,-248.93528 110.18624,-247.47917 114.61668,-244.56697 C 119.04713,-241.70972 122.53150,-237.86342 125.06977,-233.02807 C 126.86964,-229.62135 128.04648,-225.93989 128.60029,-221.98369 L 116.48578,-221.98369 C 116.20888,-223.13758 115.90890,-224.07168 115.58585,-224.78599 C 114.57052,-227.14873 113.18603,-229.12683 111.43231,-230.72029 C 109.67859,-232.31376 107.69412,-233.60501 105.47889,-234.59407 L 87.895540,-234.59407 C 85.680320,-233.60501 83.695850,-232.31376 81.942130,-230.72029 C 80.188390,-229.12683 78.803880,-227.14873 77.788570,-224.78599 C 77.465520,-224.07168 77.165550,-223.13758 76.888640,-221.98369 L 76.888640,-213.65919 L 76.957870,-186.62519 L 64.774140,-186.62519 L 64.774140,-221.98369 C 65.327940,-225.93989 66.504780,-229.62135 68.304660,-233.02807 C 70.842920,-237.86342 74.327300,-241.70972 78.757730,-244.56697 C 83.188190,-247.47917 86.718700,-248.93528 89.349290,-248.93528 C 92.026020,-248.93528 94.033560,-248.93528 95.371940,-248.93528 L 96.756450,-248.93528 z M 12.093349,-224.86842 L 7.9398035,-224.70358 C 8.9551125,-227.06630 10.339630,-229.04440 12.093349,-230.63787 C 13.847068,-232.23133 15.831540,-233.52260 18.046763,-234.51164 L 22.338758,-235.41828 L 28.153721,-235.41828 L 38.676034,-235.41828 L 45.321705,-235.41828 L 58.336140,-235.41828 L 58.336140,-248.93528 C 36.091606,-248.82538 24.784735,-248.79792 24.415530,-248.85285 C 23.815574,-248.85285 23.469446,-248.85285 23.377145,-248.85285 C 18.162140,-248.85285 13.339411,-247.39676 8.9089645,-244.48456 C 4.4785165,-241.62731 0.99415353,-237.78100 -1.5441235,-232.94566 C -3.3439925,-229.53892 -4.5208305,-225.85746 -5.0746365,-221.90127 L -5.0746365,-213.57677 C -4.5208305,-209.62058 -3.3439925,-205.93912 -1.5441235,-202.53239 C 0.99415353,-197.69704 4.4785165,-193.82327 8.9089645,-190.91107 C 13.339411,-188.05382 16.869925,-186.62519 19.500502,-186.62519 C 22.177232,-186.62519 23.677123,-186.62519 24.000176,-186.62519 L 24.000176,-200.96640 L 18.046763,-200.96640 C 15.831540,-201.95545 13.847068,-203.24670 12.093349,-204.84017 C 10.339630,-206.43364 8.9551125,-208.38426 7.9398035,-210.69205 L 29.953590,-210.69205 L 36.460810,-210.69205 L 36.460810,-224.86842 L 20.677340,-224.86842 L 12.093349,-224.86842 z "
       id="path842"
       transform="matrix(1.118314,0.000000,0.000000,1.117442,4.599221,31.08548)" />
  </g>
</svg>
