<?xml version="1.0" encoding="UTF-8" standalone="no"?>
<!DOCTYPE svg PUBLIC "-//W3C//DTD SVG 1.0//EN"
"http://www.w3.org/TR/2001/REC-SVG-20010904/DTD/svg10.dtd">
<!-- Created with Inkscape (http://www.inkscape.org/) -->
<svg
   id="svg1"
   sodipodi:version="0.32"
   inkscape:version="0.38.1"
   xmlns="http://www.w3.org/2000/svg"
   xmlns:sodipodi="http://sodipodi.sourceforge.net/DTD/sodipodi-0.dtd"
   xmlns:inkscape="http://www.inkscape.org/namespaces/inkscape"
   xmlns:xlink="http://www.w3.org/1999/xlink"
   width="210mm"
   height="297mm"
   sodipodi:docbase="/home/eva"
   sodipodi:docname="logo_freckle.svg">
  <defs
     id="defs3">
    <linearGradient
       id="linearGradient840">
      <stop
         style="stop-color:#666666;stop-opacity:1.0000000;"
         offset="0.0000000"
         id="stop841" />
      <stop
         style="stop-color:#6b6b6b;stop-opacity:1.0000000;"
         offset="0.50000000"
         id="stop849" />
      <stop
         style="stop-color:#f8f8f8;stop-opacity:1.0000000;"
         offset="1.0000000"
         id="stop842" />
    </linearGradient>
    <linearGradient
       xlink:href="#linearGradient840"
       id="linearGradient843"
       x1="19.774637"
       y1="34.772442"
       x2="31.173685"
       y2="32.983349"
       gradientTransform="matrix(0.841784,0.000000,6.541370e-2,1.187953,0.000000,0.000000)" />
    <linearGradient
       xlink:href="#linearGradient840"
       id="linearGradient844" />
    <radialGradient
       xlink:href="#linearGradient840"
       id="radialGradient845"
       cx="632.17725"
       cy="517.57947"
       r="31.994757"
       fx="632.17725"
       fy="517.57947" />
    <radialGradient
       xlink:href="#linearGradient840"
       id="radialGradient846" />
    <linearGradient
       xlink:href="#linearGradient840"
       id="linearGradient847"
       x1="260.65161"
       y1="458.33926"
       x2="410.90369"
       y2="434.75705"
       gradientUnits="userSpaceOnUse"
       spreadMethod="reflect" />
    <linearGradient
       xlink:href="#linearGradient840"
       id="linearGradient848"
       x1="260.65161"
       y1="458.33926"
       x2="410.90369"
       y2="434.75705"
       gradientUnits="userSpaceOnUse" />
    <linearGradient
       xlink:href="#linearGradient840"
       id="linearGradient850"
       x1="260.65161"
       y1="458.33926"
       x2="410.90369"
       y2="434.75705"
       gradientUnits="userSpaceOnUse"
       spreadMethod="reflect" />
    <linearGradient
       xlink:href="#linearGradient840"
       id="linearGradient851" />
  </defs>
  <sodipodi:namedview
     id="base"
     pagecolor="#ffffff"
     bordercolor="#666666"
     borderopacity="1.0"
     inkscape:pageopacity="0.0"
     inkscape:pageshadow="2"
     inkscape:zoom="1.1059019"
     inkscape:cx="281.48900"
     inkscape:cy="406.93683"
     inkscape:window-width="1022"
     inkscape:window-height="715"
     inkscape:window-x="0"
     inkscape:window-y="24" />
  <rect
     style="fill:url(#linearGradient850);fill-opacity:0.75000000;fill-rule:evenodd;stroke:#000000;stroke-width:1.0004380;stroke-opacity:0.80000001;"
     id="rect825"
     width="193.06172"
     height="19.218592"
     x="52.733392"
     y="400.65027"
     transform="matrix(0.999976,-6.982290e-3,-3.485229e-2,0.999392,0.000000,0.000000)" />
  <rect
     style="fill:url(#linearGradient847);fill-rule:evenodd;stroke:#000000;stroke-width:1.0004380;stroke-opacity:0.80000001;"
     id="rect826"
     width="115.67978"
     height="18.346372"
     x="51.972951"
     y="455.29584"
     transform="matrix(0.999976,-6.982293e-3,-3.485227e-2,0.999392,0.000000,0.000000)" />
  <rect
     style="fill:url(#linearGradient848);fill-opacity:0.75000000;fill-rule:evenodd;stroke:#000000;stroke-width:1.0004380;stroke-opacity:0.80000001;"
     id="rect827"
     width="24.925571"
     height="65.556335"
     x="53.634626"
     y="494.06282"
     transform="matrix(0.999976,-6.982293e-3,-3.485227e-2,0.999392,0.000000,0.000000)" />
  <text
     xml:space="preserve"
     style="fill:url(#linearGradient843);fill-opacity:1.0000000;stroke:#000000;font-family:Verdana;font-style:normal;font-weight:normal;font-size:12.000000;stroke-opacity:1.0000000;stroke-width:0.12802415;stroke-linejoin:miter;stroke-linecap:butt;font-stretch:normal;font-variant:normal;text-anchor:start;writing-mode:lr;stroke-dasharray:none;fill-rule:nonzero;"
     x="12.691685"
     y="49.042340"
     id="text835"
     transform="matrix(15.72805,-0.109820,-1.251378,11.05534,0.000000,0.000000)"
     sodipodi:linespacing="100%"
     sodipodi:fill-cmyk="(0.20000000 0.22161160 0.0000000 0.79844964)"><tspan
       id="tspan836"
       style="fill:url(#linearGradient843);fill-opacity:1.0000000;stroke:#000000;stroke-opacity:1.0000000;stroke-width:0.12802415;stroke-dasharray:none;stroke-linecap:butt;stroke-linejoin:miter;fill-rule:nonzero;">reckl</tspan></text>
  <rect
     style="fill:#1b1b28;fill-opacity:0.69798660;fill-rule:evenodd;stroke:#000000;stroke-width:0.0000000;"
     id="rect862"
     width="2.0981000"
     height="1.8452904"
     x="710.77472"
     y="529.78048"
     transform="matrix(0.999976,-6.982302e-3,-3.485221e-2,0.999392,0.000000,0.000000)" />
  <rect
     style="fill:#1b1b28;fill-opacity:0.69798660;fill-rule:evenodd;stroke:#000000;stroke-width:0.0000000;"
     id="rect863"
     width="4.8999991"
     height="3.7555624"
     x="694.17040"
     y="536.78908"
     transform="matrix(0.999976,-6.982302e-3,-3.485221e-2,0.999392,0.000000,0.000000)" />
  <rect
     style="fill:#1b1b28;fill-opacity:0.69798660;fill-rule:evenodd;stroke:#000000;stroke-width:0.0000000;"
     id="rect864"
     width="4.9322280"
     height="3.1855430"
     x="697.91754"
     y="531.49953"
     transform="matrix(0.999976,-6.982302e-3,-3.485221e-2,0.999392,0.000000,0.000000)" />
  <rect
     style="fill:#1b1b28;fill-opacity:0.69798660;fill-rule:evenodd;stroke:#000000;stroke-width:0.0000000;"
     id="rect865"
     width="2.0561443"
     height="4.7783142"
     x="689.82208"
     y="537.47243"
     transform="matrix(0.999976,-6.982302e-3,-3.485221e-2,0.999392,0.000000,0.000000)" />
  <rect
     style="fill:#1b1b28;fill-opacity:0.69798660;fill-rule:evenodd;stroke:#000000;stroke-width:0.0000000;"
     id="rect866"
     width="3.2154756"
     height="2.6934146"
     x="690.34649"
     y="532.94014"
     transform="matrix(0.999976,-6.982302e-3,-3.485221e-2,0.999392,0.000000,0.000000)" />
  <rect
     style="fill:#1b1b28;fill-opacity:0.69798660;fill-rule:evenodd;stroke:#000000;stroke-width:0.0000000;"
     id="rect867"
     width="3.2496450"
     height="1.2083851"
     x="704.77991"
     y="527.41109"
     transform="matrix(0.999976,-6.982302e-3,-3.485221e-2,0.999392,0.000000,0.000000)" />
  <rect
     style="fill:#1b1b28;fill-opacity:0.69798660;fill-rule:evenodd;stroke:#000000;stroke-width:0.0000000;"
     id="rect868"
     width="1.7695822"
     height="1.3377170"
     x="706.72418"
     y="520.67666"
     transform="matrix(0.999976,-6.982302e-3,-3.485221e-2,0.999392,0.000000,0.000000)" />
  <path
     style="fill:#666666;fill-rule:nonzero;stroke:#000000;fill-opacity:1.0000000;stroke-opacity:0.80000001;stroke-width:1.0000000;stroke-linejoin:miter;stroke-linecap:butt;stroke-dasharray:none;"
     id="path874"
     d="M 614.30834,499.36237 C 618.64923,500.61271 623.64736,500.62865 632.46392,500.00960 C 638.78538,499.45671 645.60321,498.88021 651.62762,495.89689 C 654.38651,494.31578 656.49044,492.00169 657.09237,488.25314 C 657.41558,485.50552 656.28480,483.34693 654.72062,481.62224 C 652.35550,479.22646 649.23357,477.87827 646.19527,477.19109 C 642.60355,476.62116 639.13480,477.27609 635.58418,478.37323 C 631.77215,479.62275 628.07366,481.11091 624.43942,483.06727 C 621.46186,484.67527 618.55785,486.41980 616.13358,489.16315 C 613.56884,492.31392 611.84038,496.08803 610.41797,500.10492 C 609.06334,503.93040 608.33750,507.80247 608.43748,511.89417 C 608.50589,514.69383 609.04979,517.93283 610.75588,519.88125 C 612.62117,521.77750 615.08574,522.84366 617.41139,523.66922 C 621.42157,525.02708 625.55600,525.80431 629.62642,526.89591 C 635.28450,528.47372 641.50416,528.58995 647.34528,528.98891 C 656.16531,528.50678 663.74849,529.50905 668.56653,525.10859 L 667.54548,537.78967 C 662.11022,539.63172 653.84515,539.15934 648.32458,538.89768 C 641.65624,538.41578 634.99208,537.24295 628.51489,535.49534 C 624.02953,534.32961 619.49739,533.41582 615.08416,531.92789 C 610.36545,530.21920 605.76471,527.80643 602.14375,523.74938 C 599.19982,519.98478 597.85218,515.26271 597.67099,509.98925 C 597.67742,505.07331 598.48288,500.50269 600.08377,495.90098 C 601.82259,491.08995 603.93291,486.65943 607.00019,482.87508 C 610.03610,479.41332 613.58531,477.13873 617.33207,475.12151 C 621.49153,472.91790 625.71853,471.25570 630.06939,469.82567 C 635.76751,468.06507 641.29824,467.42540 647.02231,468.51688 C 652.79375,469.96106 658.44272,472.63603 662.90278,477.26559 C 666.14689,480.92750 668.57169,485.70334 667.76707,491.45075 C 666.53967,497.62256 662.99822,501.41363 658.34569,503.93502 C 651.06252,507.34574 643.10428,508.11884 635.49111,508.75117 C 626.48918,509.33773 609.97088,513.99574 611.06655,510.29926 L 614.30834,499.36237 z "
     sodipodi:nodetypes="cccccccccssccccccccccccccccccccsc" />
  <rect
     style="fill:#1b1b28;fill-opacity:0.69798660;fill-rule:evenodd;stroke:#000000;stroke-width:0.0000000;"
     id="rect875"
     width="2.0981000"
     height="1.8452904"
     x="706.29852"
     y="531.70766"
     transform="matrix(0.999976,-6.982302e-3,-3.485221e-2,0.999392,0.000000,0.000000)" />
  <rect
     style="fill:#1b1b28;fill-opacity:0.69798660;fill-rule:evenodd;stroke:#000000;stroke-width:0.0000000;"
     id="rect877"
     width="2.3266625"
     height="2.4949713"
     x="702.07147"
     y="536.30733"
     transform="matrix(0.999976,-6.982302e-3,-3.485221e-2,0.999392,0.000000,0.000000)" />
  <rect
     style="fill:#1b1b28;fill-opacity:0.69798660;fill-rule:evenodd;stroke:#000000;stroke-width:0.0000000;"
     id="rect879"
     width="3.2154756"
     height="2.6934146"
     x="694.09912"
     y="528.49630"
     transform="matrix(0.999976,-6.982302e-3,-3.485221e-2,0.999392,0.000000,0.000000)" />
  <rect
     style="fill:#1b1b28;fill-opacity:0.69798660;fill-rule:evenodd;stroke:#000000;stroke-width:0.0000000;"
     id="rect880"
     width="2.1457675"
     height="1.9052164"
     x="696.38995"
     y="541.58278"
     transform="matrix(0.999976,-6.982302e-3,-3.485221e-2,0.999392,0.000000,0.000000)" />
  <rect
     style="fill:#1b1b28;fill-opacity:0.69798660;fill-rule:evenodd;stroke:#000000;stroke-width:0.0000000;"
     id="rect881"
     width="1.7695822"
     height="1.3377170"
     x="707.86768"
     y="536.54067"
     transform="matrix(0.999976,-6.982302e-3,-3.485221e-2,0.999392,0.000000,0.000000)" />
</svg>
